<svg id="Group_1842" data-name="Group 1842" xmlns="http://www.w3.org/2000/svg" width="174.635" height="71.824" viewBox="0 0 174.635 71.824">
  <path id="Path_752" data-name="Path 752" d="M3293.769,1252.624V1248.5H3288.8v-67.7h170.594v4.883h4.042v66.941Zm165.2-71.4H3289.306v66.772h169.666Z" transform="translate(-3288.8 -1180.8)" fill="#091e42"/>
  <path id="Path_753" data-name="Path 753" d="M3421.147,1219.034V1208.8a19.6,19.6,0,0,1,36.529-9.978,19.4,19.4,0,0,1-2.622,23.253,19.024,19.024,0,0,1-15.728,6.173,19.454,19.454,0,0,1-5.835-1.268c-.084,0-.168-.085-.338-.085v16.236h-12.091v-17.081a19.7,19.7,0,0,1-38.982-1.438v18.519h-12.092v-16.151c-1.1.339-2.2.676-3.213.93a19.586,19.586,0,0,1-9.3-38.052,5.034,5.034,0,0,1,.591-.169l.254-.085a22.958,22.958,0,0,1,4.143-.424,19.628,19.628,0,0,1,19.111,15.729,31.457,31.457,0,0,1,.422,3.974c.085,3.636,0,7.357,0,11.076v.677a19.774,19.774,0,0,1,19.28-17.588A19.46,19.46,0,0,1,3421.147,1219.034Zm-19.364,10.654a7.181,7.181,0,0,0,7.188-7.187,7.092,7.092,0,0,0-7.1-7.1h-.253a7.318,7.318,0,0,0-7.018,7.187,7.164,7.164,0,0,0,7.187,7.1Zm31.793-21.055a7.145,7.145,0,1,0,7.1-7.188,7.111,7.111,0,0,0-7.1,7.188Zm-63.841.084a7.061,7.061,0,1,0-7.019,7.1,7.187,7.187,0,0,0,7.019-7.1Z" transform="translate(-3297.839 -1182.082)" fill="#091e42"/>
  <path id="Path_754" data-name="Path 754" d="M3411.294,1202.306a6.553,6.553,0,1,1-.083-13.106,6.513,6.513,0,0,1,6.6,6.427h0v.169a6.408,6.408,0,0,1-6.258,6.511h-.254Z" transform="translate(-3307.142 -1182.097)" fill="#091e42"/>
  <path id="Path_755" data-name="Path 755" d="M3305.083,1202.686a6.815,6.815,0,0,1-4.061,1.945,3.528,3.528,0,0,1-4.228-4.228,6.857,6.857,0,0,1,2.452-4.651l.34-.338c.084-.085.084-.085.084-.169a8.337,8.337,0,0,0-1.354-.423,1.759,1.759,0,0,1,1.437-1.86,4.244,4.244,0,0,1,1.776.169.9.9,0,0,1,.677,1.1h0a1.9,1.9,0,0,1-.254.423l-.761.761a3,3,0,0,0,4.058-.338c.17-.254.338-.423.508-.677a.951.951,0,0,1,1.352-.169c.087.085.17.085.17.169a9.18,9.18,0,0,1,.762.93,2.426,2.426,0,0,0,3.465.169h0c.17-.169.254-.338.423-.507a.182.182,0,0,1,.17-.169h.084c.253,1.1.337,1.268,1.522,1.268a9.237,9.237,0,0,0,4.734-1.268c-.762-.254-1.437-.507-2.114-.677-.252-.084-.592.085-.846.169a.845.845,0,0,0-.422.338c.254-1.607,1.268-2.283,2.368-1.691a8.593,8.593,0,0,0,4.059,1.1c-.169.846-.423,1.607-1.522,1.353a.691.691,0,0,0,.762.676,8.137,8.137,0,0,0,2.03,0,1.442,1.442,0,0,0,1.1-.845c.337-.508.592-1.015.929-1.438.508-.761,1.185-.761,1.777,0a2.45,2.45,0,0,1,.507,2.706c-.337.677-.676.846-1.438.508a1.863,1.863,0,0,1-.676-.423c-.253-.169-.423-.338-.592-.423s-.083,0-.083.084a1.821,1.821,0,0,1-2.2,1.184h-.845c-1.015,0-1.439-.507-1.605-1.437,0-.169-.086-.338-.086-.592a9.55,9.55,0,0,0-1.6.845,6.836,6.836,0,0,1-2.792,1.184,7.469,7.469,0,0,1-1.944,0,1.094,1.094,0,0,1-1.183-.761,3.452,3.452,0,0,1-3.975.338c-.168,1.184-.593,1.353-1.606.676a6.373,6.373,0,0,1-1.184-.93c-1.354,1.1-2.96.845-4.65-.761a6.21,6.21,0,0,0-2.875,3.805,3.051,3.051,0,0,0,2.367,3.552.768.768,0,0,1,.424.084,10.259,10.259,0,0,0,4.228-.592c.168-.084.253-.084.423-.169C3305,1202.6,3305,1202.686,3305.083,1202.686Zm2.282-5.919a2.864,2.864,0,0,0-.762-1.607c-.084-.084-.423,0-.507.085s-.337.423-.253.507a2.459,2.459,0,0,0,1.522,1.015Zm17.249-1.607a6.425,6.425,0,0,0,1.015.592c.17.085.507.169.507-.254s-.423-1.184-.675-1.184c-.507-.085-.593.422-.847.845Z" transform="translate(-3290.03 -1182.645)" fill="#091e42"/>
  <path id="Path_756" data-name="Path 756" d="M3315.6,1225.736c2.282.169,4.143-.254,4.9-2.706a4.248,4.248,0,0,1-1.014-.169,1.016,1.016,0,0,1-.931-1.015h0v-.084a3.442,3.442,0,0,1,.676-2.03c.507-.592,1.015-.507,1.353.085a2.487,2.487,0,0,1,.337.845,3.5,3.5,0,0,1,.171.93h2.114c1.521,0,3.043,0,4.48-.085a4.459,4.459,0,0,0,1.016-.254,1.023,1.023,0,0,0,.591-1.1,7.382,7.382,0,0,1-1.268.423.993.993,0,0,1-1.184-.846h0v-.169a3.77,3.77,0,0,1,.845-2.621c.338-.423.762-.423,1.185,0a4.857,4.857,0,0,1,.761,4.651,2.055,2.055,0,0,1-1.775,1.184c-.761.084-1.607.084-2.369.169h-4.058c-.338,0-.509.084-.592.423a5.425,5.425,0,0,1-1.268,2.621,2.353,2.353,0,0,1-2.283.761A6.874,6.874,0,0,1,3315.6,1225.736Zm12.6-6.342c.254-.169.592-.338.592-.507a.988.988,0,0,0-.676-.93c-.253,0-.592.507-.592.845S3327.776,1219.225,3328.2,1219.394Zm-7.61,2.283a1.517,1.517,0,0,0-.507-.761.9.9,0,0,0-.676-.084.6.6,0,0,0-.254.507c.085.169.34.254.507.338Z" transform="translate(-3292.938 -1186.481)" fill="#091e42"/>
  <path id="Path_757" data-name="Path 757" d="M3308.127,1237.5c-.254.93-.422,1.607-1.352,1.945-1.354.592-2.537,1.268-3.89,1.945-.17.084-.254.169-.423.253.762.592,1.606,1.184,2.367,1.861a2.572,2.572,0,0,1,.929,2.79,2.4,2.4,0,0,1-2.366,1.86,19.1,19.1,0,0,1-2.2.085,1.6,1.6,0,0,1-1.775-1.269c0-.084-.084-.169-.084-.254a2.027,2.027,0,0,1-2.452-.085c-.254-.253,0-1.184.422-1.606a6.421,6.421,0,0,1,.93-.676,1.2,1.2,0,0,0,.762-1.1c0-.338.338-.592.676-.846,0,.761.083,1.438.083,2.2q.128.761.254,1.522c.17.592.423.845,1.015.761a19.524,19.524,0,0,0,3.129-.254,1.684,1.684,0,0,0,1.015-.676c.083-.254-.338-.761-.593-1.015a16.332,16.332,0,0,0-2.452-1.776c-.931-.677-1.014-1.522-.084-2.114,1.438-.93,2.875-1.775,4.313-2.621C3307.027,1238.007,3307.535,1237.838,3308.127,1237.5Zm-10.4,8.2v.169a3.656,3.656,0,0,0,1.353-.084c.17-.084.085-.677.17-1.184a11.892,11.892,0,0,0-1.522,1.1Z" transform="translate(-3290.032 -1189.793)" fill="#091e42"/>
  <path id="Path_758" data-name="Path 758" d="M3319.576,1237.9c.169,1.945.254,3.974.423,5.919.084.761.168,1.522.253,2.2a1.173,1.173,0,0,0,1.1.93h.593a1.939,1.939,0,0,0,2.028-1.353.5.5,0,0,1,.085.338c.084.761.338.93,1.1,1.015a2.158,2.158,0,0,0,2.284-1.184,3.548,3.548,0,0,1,.759-1.184.944.944,0,0,1,1.355-.254c.084.084.253.169.337.254a2.5,2.5,0,0,1,.593,2.791.944.944,0,0,1-1.1.677h0a.642.642,0,0,1-.339-.169c-.422-.254-.846-.507-1.352-.846-.423.677-.846,1.353-1.776,1.269-.762-.085-1.607,0-2.029-.846a2.843,2.843,0,0,1-3.213.592,2.191,2.191,0,0,1-.931-1.184c-.169-1.014-.253-2.03-.423-2.959-.169-1.438-.338-2.96-.422-4.4a5.223,5.223,0,0,1,.592-1.607Zm10.063,8.709c0-.592-.509-1.353-.846-1.269s-.422.423-.676.677c.422.253.762.507,1.184.761.084.084.254-.169.339-.169Z" transform="translate(-3293.448 -1189.855)" fill="#091e42"/>
  <path id="Path_759" data-name="Path 759" d="M3307.375,1222.508c.17-.592.254-1.015.93-1.269a4.638,4.638,0,0,0,1.522-1.353.391.391,0,0,0,0-.423,20.774,20.774,0,0,0-3.213-4.481c-.084-.084-.17-.169-.253-.169-.592,0-1.945-.846-1.861-1.354a12.392,12.392,0,0,1,.423-1.691,11.633,11.633,0,0,1,3.213,3.213c.845,1.184,1.522,2.452,2.367,3.805a14.035,14.035,0,0,0,.592-2.706,11.626,11.626,0,0,0-.169-2.96,1.266,1.266,0,0,1,.676-1.522,3.467,3.467,0,0,0,.593.93.692.692,0,0,1-.085,1.014h0l-.085.085a1.2,1.2,0,0,0-.167.507,12.878,12.878,0,0,1-.931,5.074c-.085.169,0,.423,0,.592.084.508.169.93.253,1.437a1.134,1.134,0,0,1-.93,1.269Zm1.945-1.184c.507,0,.845-.085,1.269-.085a4.654,4.654,0,0,1-.339-1.015,5.749,5.749,0,0,0-.93,1.1Z" transform="translate(-3291.224 -1185.685)" fill="#091e42"/>
  <path id="Path_760" data-name="Path 760" d="M3298.161,1219.153c.084-.338.169-.761.339-1.353l1.014.761a3.871,3.871,0,0,1,1.354,2.875,1.629,1.629,0,0,1-1.522,1.776,7.5,7.5,0,0,1-1.945,0c-.591-.085-.591-.169-.506-.761.084-.169.084-.423.253-.423a12.8,12.8,0,0,0,2.537-.169c.76-.084.845-.423.338-1.015A11.633,11.633,0,0,0,3298.161,1219.153Z" transform="translate(-3290.043 -1186.656)" fill="#091e42"/>
  <path id="Path_761" data-name="Path 761" d="M3309.8,1251.634a21.093,21.093,0,0,0,2.283-.338,3.41,3.41,0,0,0,2.537-2.114.769.769,0,0,0-.084-.93c-.085-.084-.17-.254-.254-.338-.676-.93-.76-1.015-.084-2.114a3.252,3.252,0,0,1,.93,1.945,4.676,4.676,0,0,1-1.269,3.889,2.24,2.24,0,0,1-1.86.677A2.871,2.871,0,0,1,3309.8,1251.634Z" transform="translate(-3292.042 -1191.141)" fill="#091e42"/>
  <path id="Path_762" data-name="Path 762" d="M3313.459,1190.7a4.415,4.415,0,0,1,.931.845,7.654,7.654,0,0,0,.762-.845c.337.338.845.677.845.93s-.423.592-.76.93c-.339-.339-.592-.508-.931-.846-.253.338-.423.592-.591.846-.34-.339-.677-.592-1.015-.93A4.014,4.014,0,0,1,3313.459,1190.7Z" transform="translate(-3292.491 -1182.329)" fill="#091e42"/>
  <path id="Path_763" data-name="Path 763" d="M3329.783,1241.214c-.507-.254-.762-.507-.676-1.015s.676-1.1,1.014-1.1a.776.776,0,0,1,.507.337c0,.423-.084.846-.084,1.269.084.253.084.507.169.845-.338-.169-.506-.169-.676-.253a3.186,3.186,0,0,1-2.536.93A13.494,13.494,0,0,0,3329.783,1241.214Zm.761-1.184-.423-.423a1.961,1.961,0,0,0-.592.591l.423.423a3.864,3.864,0,0,0,.592-.592Z" transform="translate(-3294.916 -1190.02)" fill="#091e42"/>
  <path id="Path_764" data-name="Path 764" d="M3329.713,1189.808c-.676-.761-.591-1.607.255-2.03.422-.253.759-.084.845.423a6.614,6.614,0,0,1-.169,1.268c.083.085.169.085.253.169a1.206,1.206,0,0,0-.17.508,1.565,1.565,0,0,0-.591-.169,3.184,3.184,0,0,1-2.537.93C3328.276,1190.569,3329.037,1190.231,3329.713,1189.808Zm.846-1.1-.422-.423a3.7,3.7,0,0,0-.507.592c0,.085.253.254.422.423C3330.137,1189.132,3330.391,1188.963,3330.559,1188.709Z" transform="translate(-3294.932 -1181.86)" fill="#091e42"/>
  <path id="Path_765" data-name="Path 765" d="M3321.4,1200.814c.254-.338.593-.592.931-1.015.338.339.846.677.846,1.015s-.508.677-.761,1.015A11.608,11.608,0,0,0,3321.4,1200.814Z" transform="translate(-3293.833 -1183.803)" fill="#091e42"/>
  <path id="Path_766" data-name="Path 766" d="M3329.2,1213.53a4.412,4.412,0,0,0,.846-.93c1.354.845,1.184,1.1.084,1.86Z" transform="translate(-3295.183 -1185.827)" fill="#091e42"/>
  <path id="Path_767" data-name="Path 767" d="M3324.415,1253.83l-1.015-1.015a10.362,10.362,0,0,0,.931-1.015c.337.338.845.677.845,1.015S3324.668,1253.576,3324.415,1253.83Z" transform="translate(-3294.143 -1192.067)" fill="#091e42"/>
</svg>
