<svg xmlns="http://www.w3.org/2000/svg" xmlns:xlink="http://www.w3.org/1999/xlink" width="170.918" height="117.65" viewBox="0 0 170.918 117.65">
  <defs>
    <clipPath id="clip-path">
      <rect id="SVGID" width="75.638" height="15.128" fill="#ebecf0"/>
    </clipPath>
  </defs>
  <g id="Group_1848" data-name="Group 1848" transform="translate(0 0)">
    <g id="Group_1843" data-name="Group 1843" transform="translate(47.64 102.522)" clip-path="url(#clip-path)">
      <path id="Path_769" data-name="Path 769" d="M348.682,835.929c0,4.177-16.932,7.564-37.819,7.564s-37.819-3.386-37.819-7.564,16.932-7.564,37.819-7.564,37.819,3.386,37.819,7.564" transform="translate(-273.045 -828.365)" fill="#ebecf0"/>
    </g>
    <path id="Path_770" data-name="Path 770" d="M211.7,289.665,163.038,241a6.882,6.882,0,0,1,0-9.733L211.7,182.6a6.883,6.883,0,0,1,9.733,0L270.1,231.266a6.882,6.882,0,0,1,0,9.733l-48.666,48.666a6.883,6.883,0,0,1-9.733,0" transform="translate(-131.111 -180.584)" fill="#003087"/>
    <path id="Path_771" data-name="Path 771" d="M135.83,447.013H-20.844c-3.933,0-7.122-2.533-7.122-5.658V407.411c0-3.125,3.188-5.658,7.122-5.658H135.83c3.933,0,7.122,2.533,7.122,5.658v33.945c0,3.125-3.189,5.658-7.122,5.658" transform="translate(27.966 -366.749)" fill="#03a9f4"/>
    <g id="Group_1846" data-name="Group 1846" transform="translate(96.886 42.513)">
      <path id="Path_772" data-name="Path 772" d="M616.429,455.989h-.421v3.7a2.559,2.559,0,0,1-.106.782,1.143,1.143,0,0,1-.316.516,1.935,1.935,0,0,1-1.375.4h-5.546a3.776,3.776,0,0,1-.932-.1,1.441,1.441,0,0,1-.621-.31,1.652,1.652,0,0,1-.477-1.32l-.011-2.884v-.422h-2.806v3.338a2.063,2.063,0,0,1-.322,1.32.936.936,0,0,1-.416.283,1.808,1.808,0,0,1-.616.094,1.412,1.412,0,0,1-1.109-.388,1.949,1.949,0,0,1-.344-1.3L601,456.777v-.422h-2.839v3.327a3.685,3.685,0,0,1-.039.56,1.76,1.76,0,0,1-.122.438,1.171,1.171,0,0,1-.205.322,1.53,1.53,0,0,1-1.176.388A1.62,1.62,0,0,1,595.4,461a1.255,1.255,0,0,1-.283-.521,2.786,2.786,0,0,1-.094-.776l-.011-2.928v-.422h-2.839v3.327a1.594,1.594,0,0,1-.493,1.3,2.569,2.569,0,0,1-1.636.41h-1.753a1.665,1.665,0,0,1-.588-.089.936.936,0,0,1-.421-.277,1.27,1.27,0,0,1-.244-.532,3.618,3.618,0,0,1-.078-.81V449.268H584.2v10.4a6.213,6.213,0,0,0,.455,2.5,3.292,3.292,0,0,0,1.364,1.564,4.335,4.335,0,0,0,2.24.543h1.775a4.736,4.736,0,0,0,3.594-1.22l.011-.022.022.022a3.019,3.019,0,0,0,1.225.915,4.492,4.492,0,0,0,1.725.3,3.756,3.756,0,0,0,3.017-1.164l.022-.022.022.022a3.012,3.012,0,0,0,1.181.871,4.127,4.127,0,0,0,1.6.294,4.65,4.65,0,0,0,1.7-.288,2.734,2.734,0,0,0,1.2-.9l.011-.011.022.011a3.365,3.365,0,0,0,.644.521,3.894,3.894,0,0,0,.782.371,4.936,4.936,0,0,0,.909.222,6.911,6.911,0,0,0,1.026.072h5.468a4.627,4.627,0,0,0,3.416-1.176,3.654,3.654,0,0,0,.893-1.436,5.977,5.977,0,0,0,.294-1.958v-3.716h-2.4Z" transform="translate(-584.199 -449.257)" fill="#fff"/>
      <path id="Path_773" data-name="Path 773" d="M757.332,556.568a.625.625,0,0,0-.976.056l-1.009,1.009a.61.61,0,0,0-.033.954l1.076,1.087a.626.626,0,0,0,.987-.011l1.009-1.009a.649.649,0,0,0,.033-1.01Z" transform="translate(-728.052 -539.399)" fill="#fff"/>
      <path id="Path_774" data-name="Path 774" d="M782.362,556.568a.625.625,0,0,0-.976.056l-1.009,1.02a.613.613,0,0,0-.044.943l1.087,1.087a.626.626,0,0,0,.987-.011l1.009-1.009a.641.641,0,0,0,.033-1.01Z" transform="translate(-749.122 -539.399)" fill="#fff"/>
      <path id="Path_775" data-name="Path 775" d="M891.181,556.568a.625.625,0,0,0-.976.056l-1.009,1.009a.61.61,0,0,0-.033.954l1.076,1.087a.626.626,0,0,0,.987-.011l1.009-1.009a.649.649,0,0,0,.033-1.01Z" transform="translate(-840.717 -539.399)" fill="#fff"/>
      <path id="Path_776" data-name="Path 776" d="M828.672,491.735h-.421v3.7a2.56,2.56,0,0,1-.106.782,1.147,1.147,0,0,1-.316.516,1.936,1.936,0,0,1-1.375.4H821.03a2.341,2.341,0,0,1-1.431-.383,1.686,1.686,0,0,1-.51-1.425v-2.917l-2.806.022v6.377q0,3.471-3.915,3.46h-1.187v2.873h1.231q6.133.011,6.655-5.5a4.357,4.357,0,0,0,1.963.377h5.434a4.627,4.627,0,0,0,3.416-1.176,3.655,3.655,0,0,0,.893-1.436,5.976,5.976,0,0,0,.294-1.958v-3.715h-2.4Z" transform="translate(-775.257 -485.003)" fill="#fff"/>
      <path id="Path_777" data-name="Path 777" d="M916.211,556.568a.626.626,0,0,0-.976.056l-1.009,1.02a.613.613,0,0,0-.044.943l1.087,1.087a.626.626,0,0,0,.987-.011l1.009-1.009a.641.641,0,0,0,.033-1.01Z" transform="translate(-861.787 -539.399)" fill="#fff"/>
      <path id="Path_778" data-name="Path 778" d="M952.57,449.2h-2.285V464.2h2.728V449.2Z" transform="translate(-892.346 -449.198)" fill="#fff"/>
    </g>
    <g id="Group_1847" data-name="Group 1847" transform="translate(13.69 57.634)">
      <path id="Path_779" data-name="Path 779" d="M58.532,544.909h2.675v14.979H58.532Z" transform="translate(-58.532 -544.882)" fill="#fff"/>
      <path id="Path_780" data-name="Path 780" d="M94.025,544.909h5.256a5.256,5.256,0,0,1,1.973.356,4.538,4.538,0,0,1,1.52.983,4.294,4.294,0,0,1,.977,1.5,5.12,5.12,0,0,1,.342,1.894,4.069,4.069,0,0,1-.242,1.412,4.271,4.271,0,0,1-.665,1.193,5.057,5.057,0,0,1-2.175,1.58l-.02.146,3.866,5.753v.167h-3.086l-3.684-5.617H96.834v5.617H94.025Zm5.168,6.687a2.047,2.047,0,0,0,1.506-.583,2,2,0,0,0,.588-1.479,2.346,2.346,0,0,0-.129-.771,1.967,1.967,0,0,0-.389-.667,1.925,1.925,0,0,0-.648-.469,2.128,2.128,0,0,0-.888-.177H96.7V551.6Z" transform="translate(-88.408 -544.882)" fill="#fff"/>
      <path id="Path_781" data-name="Path 781" d="M172.615,544.909h2.675v14.979h-2.675Z" transform="translate(-154.559 -544.882)" fill="#fff"/>
      <path id="Path_782" data-name="Path 782" d="M207.356,559.746a5.942,5.942,0,0,1-1.765-.261,5.091,5.091,0,0,1-1.545-.782,5.408,5.408,0,0,1-1.224-1.274,6.16,6.16,0,0,1-.823-1.755l2.548-1a3.886,3.886,0,0,0,.983,1.8,2.476,2.476,0,0,0,1.846.712,2.978,2.978,0,0,0,.813-.11,2.4,2.4,0,0,0,.7-.321,1.554,1.554,0,0,0,.491-.532,1.487,1.487,0,0,0,.181-.742,1.785,1.785,0,0,0-.141-.722,1.7,1.7,0,0,0-.471-.6,4.2,4.2,0,0,0-.863-.542,13.191,13.191,0,0,0-1.314-.542l-.883-.321a6.747,6.747,0,0,1-1.174-.542,5.138,5.138,0,0,1-1.073-.823,4.05,4.05,0,0,1-.792-1.133,3.38,3.38,0,0,1-.311-1.475,3.777,3.777,0,0,1,.331-1.575,3.846,3.846,0,0,1,.943-1.284,4.42,4.42,0,0,1,1.465-.863,6.062,6.062,0,0,1,3.772-.02,4.624,4.624,0,0,1,1.344.742,4.141,4.141,0,0,1,.893.993,4.8,4.8,0,0,1,.5,1.023l-2.387,1a2.547,2.547,0,0,0-.732-1.083,2.087,2.087,0,0,0-1.454-.482,2.475,2.475,0,0,0-1.464.411,1.259,1.259,0,0,0-.582,1.073,1.359,1.359,0,0,0,.562,1.093,6.116,6.116,0,0,0,1.785.873l.9.3a10.368,10.368,0,0,1,1.575.692,4.927,4.927,0,0,1,1.224.933,3.794,3.794,0,0,1,.782,1.234,4.36,4.36,0,0,1,.271,1.595,3.928,3.928,0,0,1-.451,1.936,4.14,4.14,0,0,1-1.154,1.334,5.012,5.012,0,0,1-1.585.782A6.079,6.079,0,0,1,207.356,559.746Z" transform="translate(-179.293 -544.74)" fill="#fff"/>
      <path id="Path_783" data-name="Path 783" d="M277.563,544.909h3.084l5.387,14.979h-2.947l-1.193-3.611h-5.579l-1.193,3.611h-2.947Zm3.442,8.827-1.294-3.78-.526-1.837h-.162l-.525,1.837-1.294,3.78Z" transform="translate(-238.363 -544.882)" fill="#fff"/>
    </g>
  </g>
</svg>
